<?xml version="1.0" standalone="no"?>
<!DOCTYPE svg PUBLIC "-//W3C//DTD SVG 1.1//EN" "http://www.w3.org/Graphics/SVG/1.1/DTD/svg11.dtd" >
<!--
2013-9-30: Created.
-->
<svg>
<metadata>
Created by iconfont
</metadata>
<defs>

<font id="iconfont" horiz-adv-x="1024" >
  <font-face
    font-family="iconfont"
    font-weight="500"
    font-stretch="normal"
    units-per-em="1024"
    ascent="896"
    descent="-128"
  />
    <missing-glyph />
    
    <glyph glyph-name="book-solid" unicode="&#58932;" d="M903.5 202.3V790.1c0 23.3-18.7 42-42 42H287.7c-92.7 0-167.9-75.2-167.9-167.9v-559.8c0-92.7 75.2-167.9 167.9-167.9h573.8c23.3 0 42 18.7 42 42v28c0 13.1-6.1 25-15.6 32.7-7.3 26.9-7.3 103.7 0 130.7 9.5 7.4 15.6 19.3 15.6 32.4zM343.7 597.7c0 5.8 4.7 10.5 10.5 10.5h370.9c5.8 0 10.5-4.7 10.5-10.5v-35c0-5.8-4.7-10.5-10.5-10.5H354.2c-5.8 0-10.5 4.7-10.5 10.5v35z m0-111.9c0 5.8 4.7 10.5 10.5 10.5h370.9c5.8 0 10.5-4.7 10.5-10.5v-35c0-5.8-4.7-10.5-10.5-10.5H354.2c-5.8 0-10.5 4.7-10.5 10.5v35zM787 48.4H287.7c-31 0-56 25-56 56 0 30.8 25.2 56 56 56H787c-3.3-30-3.3-82.1 0-112z"  horiz-adv-x="1024" />

    
    <glyph glyph-name="remover" unicode="&#58921;" d="M384 640V768h256v-128h192v-192H192V640h448z m320-640v192h-64v-192H544v192h-64v-192H384v192H320v-192H174.464L192 66.24000000000001V384h640v-321.536l18.56-62.464H704z"  horiz-adv-x="1024" />

    
    <glyph glyph-name="import" unicode="&#58929;" d="M1130.726 305.448c0-47.88-8.23-94.264-23.192-136.908-54.613 159.352-199.75 273.067-371.82 273.067v-68.08c0-26.184-14.214-49.376-36.657-61.346-8.978-4.489-19.452-7.481-29.177-7.481-14.215 0-27.681 4.488-39.651 13.466L366.888 523.153c-16.46 12.718-26.185 32.918-26.185 54.613s9.726 41.895 26.185 54.614l263.34 205.735c11.223 8.977 25.437 13.466 39.652 13.466 9.725 0 20.199-2.244 29.177-7.481 22.443-11.222 36.658-35.162 36.658-61.347v-68.08c217.705 0.749 395.011-183.29 395.011-409.225zM982.198 315.125c-26.184 0-47.88-21.695-47.88-47.88v-57.606c0-100.997-3.74-181.795-191.52-181.795H359.755c-193.765 0-191.52 86.035-191.52 191.521V458.766c-13.467 150.374 57.605 183.291 143.64 190.025h2.992c26.185 0 47.88 21.695 47.88 47.88 0 26.184-21.695 48.628-47.88 48.628h-2.992v0.748h-47.88c-105.486 0-191.521-86.035-191.521-191.52v-430.922c0-105.486 86.035-191.521 191.52-191.521H837.81c105.486 0 191.52 86.035 191.52 191.52V267.246c0.749 26.185-20.947 47.88-47.132 47.88z"  horiz-adv-x="1201" />

    
    <glyph glyph-name="gain" unicode="&#59084;" d="M73.9 372.20000000000005l404.8-222.4c20.5-12.5 46.2-12.5 66.6 0l404.8 222.4c10.1 6.2 10.3 20.8 0.3 27.1l-68.1 43.6c-5.3 3.4-12 3.4-17.2 0l-48.4-31c-4.7-3-4.7-9.6-0.1-12.5l16.4-10.5c2.5-1.6 2.4-5.3-0.1-6.8L544.7 234.39999999999998c-20.2-12-45.3-12-65.5 0L191.1 382.1c-2.6 1.5-2.6 5.2-0.1 6.8l16.7 10.7c4.5 2.9 4.5 9.5 0 12.5l-48.4 31c-5.3 3.4-12 3.4-17.2 0l-68.5-43.8c-10-6.4-9.8-21 0.3-27.1zM950.4 220.29999999999995l-68.1 43.6c-5.3 3.4-12 3.4-17.2 0l-48.4-31c-4.7-3-4.7-9.6-0.1-12.5l16.4-10.5c2.5-1.6 2.4-5.3-0.1-6.8L544.7 55.39999999999998c-20.2-12-45.3-12-65.5 0L191.1 203.10000000000002c-2.6 1.5-2.6 5.2-0.1 6.8l16.7 10.7c4.5 2.9 4.5 9.5 0 12.5l-48.4 31c-5.3 3.4-12 3.4-17.2 0l-68.5-43.8c-10-6.4-9.8-21 0.3-27.1l404.8-222.4c20.5-12.5 46.2-12.5 66.6 0l404.8 222.4c10.1 6.2 10.3 20.8 0.3 27.1zM74.7 547.9l404.3-222c20.5-12.5 46.2-12.5 66.6 0l404.3 222c10.2 6.2 10.2 21 0 27.3l-404.3 222c-20.5 12.5-46.2 12.5-66.6 0l-404.3-222c-10.2-6.2-10.2-21.1 0-27.3zM364 581.7c0 8.7 7.1 15.8 15.8 15.8h106.8V704.1c0 8.7 7.1 15.8 15.8 15.8h19.3c8.7 0 15.8-7 15.8-15.8v-106.7h106.8c8.7 0 15.8-7.1 15.8-15.8v-19.4h-0.1c0-8.7-7.1-15.8-15.8-15.8H537.4v-106.8c0-8.7-7.1-15.8-15.8-15.8h-19.3c-8.7 0-15.8 7-15.8 15.8v107H379.9c-8.7 0-15.8 7-15.8 15.8v19.3z"  horiz-adv-x="1024" />

    
    <glyph glyph-name="toPush" unicode="&#58889;" d="M596.45 433.68c52.43 0 103.59 0.28 154.74-0.22 11.18-0.11 22.81-1.53 33.4-4.94 35.5-11.45 59.12-52.39 51.18-89.82-18.86-88.93-39.02-177.58-57.73-266.54-5.21-24.77-12.05-47.63-33.65-63.25-11.88-8.59-24.21-15.37-39.6-15.36-136 0.12-272.01 0.05-408.01 0.05-1.92 0-3.84 0.26-7.18 0.51-0.25 4.18-0.72 8.27-0.72 12.36 0.14 130.53 0.4 261.06 0.34 391.59 0 8.61 2.13 11.74 11.25 13.22 75.59 12.23 138.48 81.59 144.34 158.02 1.61 20.93 1.75 41.89 10.68 61.89 23.22 51.98 86.22 54.45 119.89 23.09 15.76-14.68 24.43-32.93 28.16-53.99 9.54-53.85 8.32-107.21-6.38-160.08-0.41-1.45-0.35-3.03-0.71-6.53z m-347.61-61.44c-0.07 22.16-11.89 34.99-33.48 35.43-28.5 0.58-57.04 0.63-85.54-0.04-20.49-0.49-32.6-13.15-32.64-33.69-0.2-115.63-0.21-231.26 0.01-346.89 0.04-21.15 12.76-33.26 33.87-33.42 26.56-0.2 53.13-0.1 79.69-0.05 26.8 0.05 38.13 11.56 38.15 38.81 0.04 56.25 0.01 112.5 0.01 168.76-0.01 57.02 0.1 114.06-0.07 171.09z m464.22 128.85c21.53 8.8 42.95 17.89 64.68 26.14 4.53 1.72 10.82 1.83 15.31 0.12 21.72-8.28 43.11-17.45 64.62-26.29 16.84-6.92 23.63-1.93 22.15 16.07-1.89 22.85-4.07 45.69-5.12 68.58-0.25 5.48 2.18 12.19 5.64 16.53 14.5 18.21 29.9 35.69 44.87 53.52 10.04 11.97 7.56 20.28-7.4 24.02-22.91 5.73-46 10.72-68.79 16.88-5.01 1.35-10.46 5.34-13.31 9.68-13.17 20.02-25.41 40.64-38.14 60.94-7.88 12.57-16.62 12.66-24.35 0.2-12.46-20.07-24.95-40.13-36.85-60.52-3.67-6.29-8.31-9.39-15.17-10.95-23.03-5.21-45.99-10.71-68.91-16.4-14.78-3.67-17.17-11.54-7.33-23.15 15.06-17.76 29.86-35.76 45.5-52.99 5.82-6.41 6.91-12.76 6.11-20.77-2.2-22.12-3.83-44.3-5.68-66.45-0.78-17.59 5.57-21.94 22.17-15.16z"  horiz-adv-x="1024" />

    
    <glyph glyph-name="toHead" unicode="&#58947;" d="M836.3571418 584.1613429700001h-32.03626553a17.64607324 17.64607324 0 0 0-17.64607325 17.65612266V716.2858166A117.7141834 117.7141834 0 0 1 668.96061875 833.94975469H204.55535322A117.7141834 117.7141834 0 0 1 86.84116982 716.2858166v-664.56158379a117.72423281 117.72423281 0 0 1 117.7141834-117.72423281h614.87924415a117.72423281 117.72423281 0 0 1 117.72423281 117.72423281V484.0831834c-0.72352881 55.43037685-45.36126211 100.07815869-100.80168838 100.07815957z m-333.10481133 88.56198545c7.1950957 0.72352881 12.95318232-4.32107754 14.4002417-10.80269297l10.04901679-69.84066797 9.25514473 25.70538515c9.61690958 26.72033555 47.42131026 26.6600417 56.95782715-0.0904412l9.38578184-26.32842422 10.0490168 69.83061855a12.73210401 12.73210401 0 1 0 25.20293466-3.59754785l-17.28430927-120.23648702c-1.43700908-5.75808662-5.75808662-10.0490168-11.52622266-10.80269296h-1.43700908a12.33014326 12.33014326 0 0 0-11.51617324 8.6421542l-14.09877071 39.48258779c-5.60735156 15.64631894-27.7654333 15.56592715-33.25219717-0.12058857l-13.78725117-39.3921457c-2.16053877-5.75808662-7.20514511-9.36568388-12.96323173-8.64215508s-10.80269297 5.02450839-12.95318233 11.52622266l-17.28430928 120.236487c-0.72352881 7.22524307 4.32107754 13.70685937 10.80269297 14.43038819z m-139.68133419-14.4002417a12.12916377 12.12916377 0 0 0 12.22965352 12.23970292h79.58821377a12.4406833 12.4406833 0 0 0 12.19950615-9.29534062 12.19950615 12.19950615 0 0 0-11.85783925-15.23430967h-50.0441045a17.63602471 17.63602471 0 0 1-17.62597529-17.58577939 17.64607324 17.64607324 0 0 1 17.63602471-17.64607412h49.69238818a12.4406833 12.4406833 0 0 0 12.19950615-9.26519326 12.18945761 12.18945761 0 0 0-11.87793808-15.21421172h-50.04410361a17.63602471 17.63602471 0 0 1-17.60587735-17.66617119 17.64607324 17.64607324 0 0 1 17.63602471-17.64607412h50.04410362a12.23970292 12.23970292 0 1 0 0-24.47940498h-79.93992921c-6.4715669 0-12.22965352 5.75808662-12.22965352 11.52622266z m-150.48402802 1.43700996a12.40048653 12.40048653 0 0 0 5.7580875 10.04901679c5.75808662 3.60759727 13.67671201 2.16053877 17.2843084-3.59754784l24.5396997-36.9703336c9.66715401-14.56102529 32.33773653-7.71764502 32.33773565 9.74754668V659.0466164100001a12.23970292 12.23970292 0 0 0 24.47940586 0v-119.53305615c0-5.75808662-3.59754786-10.80269297-8.64215508-12.23970206a6.44141953 6.44141953 0 0 0-3.59754785-0.72352968 12.41053594 12.41053594 0 0 0-10.04901679 5.75808661l-24.53969971 36.98038214c-9.66715401 14.55097675-32.33773653 7.7075956-32.33773565-9.75759522v-20.72107265a12.13921231 12.13921231 0 0 0-12.23970292-12.24975148c-7.20514511 0-12.24975146 5.75808662-12.96323174 12.96323175zM626.37288594 83.76049834000003H226.0502a25.20293467 25.20293467 0 0 0 0 50.40586846H626.37288594a25.20293467 25.20293467 0 0 0 0-50.40586846z m0 124.55756455H226.0502a25.20293467 25.20293467 0 1 0 0 50.40586846H626.37288594a25.20293467 25.20293467 0 0 0 0-50.40586846z m0 125.28109336H226.0502a25.20293467 25.20293467 0 0 0 0 50.40586846H626.37288594c13.67671201 0 24.46935644-11.51617324 25.19288525-25.20293468a25.5144542 25.5144542 0 0 0-25.19288525-25.20293378z m260.39012432-345.68618115a3.52720459 3.52720459 0 0 0-3.51715518-3.50710664h-94.92301406a0.92450918 0.92450918 0 0 0-0.92450918 0.91446064V532.8410129900001a0.92450918 0.92450918 0 0 0 0.92450918 0.92451006h94.92301406a3.52720459 3.52720459 0 0 0 3.51715518-3.51715606z"  horiz-adv-x="1024" />

    
    <glyph glyph-name="collection" unicode="&#58959;" d="M1003.237316 605.904865a36.952838 36.952838 0 0 1-2.50788 10.594512 36.543389 36.543389 0 0 1-1.893705 5.015759 38.027644 38.027644 0 0 1-9.314981 11.106324c-0.40945 0.358269-0.614175 0.921262-1.023624 1.27953l-0.204725 0.051182a38.130006 38.130006 0 0 1-13.972472 6.500014l-236.508402 55.787526a38.385912 38.385912 0 0 1-17.606338-74.622214l96.937224-22.878003L512 507.278661 206.704044 598.7906760000001l96.681318 22.878004A38.385912 38.385912 0 1 1 285.676661 696.290893L49.62889 640.452186a37.8741 37.8741 0 0 1-13.972472-6.500014L35.502874 633.849809c-0.255906-0.204725-0.307087-0.511812-0.511812-0.665356a37.976463 37.976463 0 0 1-9.877975-11.771679 36.492207 36.492207 0 0 1-1.893705-4.913397 37.106382 37.106382 0 0 1-2.55906-10.748056c0-0.921262-0.614175-1.740161-0.614175-2.712604V46.289444a38.437094 38.437094 0 0 1 27.381951-36.748114l453.465578-135.937311a38.897725 38.897725 0 0 1 22.110286 0l261.228929 78.460805a38.385912 38.385912 0 1 1-22.110286 73.547408l-211.787874-63.618252V438.593468l376.744935 112.956945v-378.024465a38.385912 38.385912 0 1 1 76.771825 0V603.089898c0 1.023624-0.562993 1.842524-0.665356 2.814967zM96.817972 551.4480510000001L473.614088 438.593468v-476.650669l-376.744935 112.905764zM965.516759 93.632069a38.385912 38.385912 0 0 1-38.385912-38.385912v-3.992135a36.748113 36.748113 0 0 1 38.385912-36.338664 40.177255 40.177255 0 0 1 38.385913 40.330799 38.385912 38.385912 0 0 1-38.385913 38.385912zM486.76766 596.078071a38.385912 38.385912 0 0 1 9.417344-6.090564c0.40945-0.153544 0.870081-0.102362 1.279531-0.255906a38.078825 38.078825 0 0 1 14.484284-3.070873 30.196918 30.196918 0 0 1 18.783506 5.629933 37.259926 37.259926 0 0 1 6.653558 3.940954l99.649829 87.724605a38.385912 38.385912 0 1 1-50.720586 57.578869l-35.929214-31.629992V857.818812a38.385912 38.385912 0 0 1-76.771824 0v-149.142064l-38.590638 33.165428a38.385912 38.385912 0 1 1-50.055229-58.141862z"  horiz-adv-x="1024" />

    
    <glyph glyph-name="test" unicode="&#59052;" d="M967.111111 782.222222v-682.666666H56.888889V782.222222h910.222222zM113.777778 725.333333v-568.888889h796.444444V725.333333H113.777778zM170.666667 42.66666699999996h682.666666v-56.888889H170.666667zM665.6 247.46666700000003l-39.822222 45.511111L773.688889 440.888889 625.777778 588.8l39.822222 45.511111L853.333333 440.888889zM358.4 247.46666700000003l39.822222 45.511111L250.311111 440.888889 398.222222 588.8l-39.822222 45.511111L170.666667 440.888889zM540.899556 674.133333l55.182222-13.824L483.157333 207.64444400000002l-55.182222 13.767112z"  horiz-adv-x="1024" />

    
    <glyph glyph-name="settng-action" unicode="&#58935;" d="M1015.66658 270.09841900000004L1169.294997 429.420793l-105.297557 133.713119s-51.21851-36.983614-54.051932-31.289656c-17.081875 179.237671-207.693905 230.469738-207.693906 230.469739V787.896136L697.035388 896l-73.980786-79.661187 88.202125-113.797823 14.221339-5.680401 25.609255-96.743062s-77.668302-69.764546-175.57727-157.641301l-91.848969 95.061988-59.745891 5.680402 31.289657 193.472567s-108.117421 147.934458-150.781438 145.060364-116.590574-34.136635-116.590573-34.136635l93.882526-99.576484-2.846979-62.59287-82.508167-85.409373-39.830593-2.833422S51.286295 694.000053 36.983614 694.000053 0 565.967335 0 565.967335s73.967229-82.508166 93.882526-108.103865S176.390692 406.590732 176.390692 406.590732s165.016333 51.286295 156.475396 42.745358 22.762276-68.273271 22.762275-68.273271l69.642533-73.343605c-125.104397-112.130306-239.376716-214.309743-243.186246-216.912695-8.540937-5.693958 0-62.59287 0-62.592869s110.950843-133.713119 116.590574-142.254057 62.59287 2.846979 62.59287 2.846979l220.654439 253.950538 90.059439-94.899305c-0.244027-3.673959-0.555839-7.334361-0.555839-11.089661a163.484387 163.484387 0 1 1 137.698891 160.162911l1.748858 2.047114-94.804405 98.098766 154.550296 177.86841 65.426291-22.762276-31.289656-65.439849z m-88.188567-233.289604a93.896083 93.896083 0 1 0-93.882526 93.896083 93.896083 93.896083 0 0 0 93.882526-93.896083z"  horiz-adv-x="1172" />

    
    <glyph glyph-name="folder" unicode="&#58955;" d="M861.9 52.5c0-31.1-25.2-56.2-56.2-56.2H103.5l98.3 454.2c0 31 25 56.2 56.1 56.2h646.2c31 0 56.1-25.2 56.1-56.2l-98.3-398zM215.8 548.9h632v55.2c0 31-25.2 56.2-56.2 56.2h-337v50.9c0 31-25.2 56.2-56.2 56.2H117.6c-31 0-56.2-25.2-56.2-56.2v-658.6l98.2 440.2c0 30.9 25.2 56.1 56.2 56.1z m0 0"  horiz-adv-x="1024" />

    
    <glyph glyph-name="js" unicode="&#61915;" d="M64 832v-896h896V832H64z m487.6-698.8c0-87.2-51.2-127-125.8-127-67.4 0-106.4 34.8-126.4 77l68.6 41.4c13.2-23.4 25.2-43.2 54.2-43.2 27.6 0 45.2 10.8 45.2 53V420.6h84.2v-287.4z m199.2-127c-78.2 0-128.8 37.2-153.4 86l68.6 39.6c18-29.4 41.6-51.2 83-51.2 34.8 0 57.2 17.4 57.2 41.6 0 28.8-22.8 39-61.4 56l-21 9c-60.8 25.8-101 58.4-101 127 0 63.2 48.2 111.2 123.2 111.2 53.6 0 92-18.6 119.6-67.4L800 316c-14.4 25.8-30 36-54.2 36-24.6 0-40.2-15.6-40.2-36 0-25.2 15.6-35.4 51.8-51.2l21-9c71.6-30.6 111.8-62 111.8-132.4 0-75.6-59.6-117.2-139.4-117.2z"  horiz-adv-x="1024" />

    
    <glyph glyph-name="tpl" unicode="&#58882;" d="M947.257271-128H76.742729A35.794183 35.794183 0 0 0 40.948546-92.20581700000002V860.205817A35.794183 35.794183 0 0 0 76.742729 896h870.514542a35.794183 35.794183 0 0 0 35.794183-35.794183v-952.411634a35.794183 35.794183 0 0 0-35.794183-35.794183zM112.536913-56.41163300000005h798.926174V824.4116329999999H112.536913zM298.666667 0.8590599999999995A35.794183 35.794183 0 0 0 261.440716 36.93959700000005V458.738255a35.794183 35.794183 0 0 0 71.588367 0V36.93959700000005A35.794183 35.794183 0 0 0 298.666667 0.8590599999999995zM726.192394 387.436242H470.478747a35.794183 35.794183 0 0 0 0 71.588367h257.718121a35.794183 35.794183 0 0 0 0-71.588367zM730.774049 602.2013420000001H279.480984a35.794183 35.794183 0 0 0 0 71.588367h451.293065a35.794183 35.794183 0 0 0 0-71.588367zM726.192394 211.901566H470.478747a35.794183 35.794183 0 1 0 0 71.588367h257.718121a35.794183 35.794183 0 0 0 0-71.588367zM726.192394 43.812081000000035H470.478747a35.794183 35.794183 0 0 0 0 71.588366h257.718121a35.794183 35.794183 0 0 0 0-71.588366z"  horiz-adv-x="1024" />

    
    <glyph glyph-name="css" unicode="&#58912;" d="M76.8 896l81.6128-924.4672L512-128l353.5872 99.5328L947.2 896h-870.4z m695.1424-299.6224L511.6928 480l-0.6656-0.256h251.7504l-28.8256-346.2144-221.9008-67.7376-0.3584 0.1536v-0.1536l-223.1296 69.0176-14.336 174.336h110.6944l7.168-90.3168 118.5792-31.2832 1.024 0.3072v-0.1536l122.7264 36.1472 8.3968 145.5104-131.1232 0.4096-244.736 0.8192-8.3456 109.1584 253.0816 110.2336 14.7456 6.4H249.0368l-13.2608 111.616h546.9696l-10.8032-111.616z"  horiz-adv-x="1024" />

    
    <glyph glyph-name="check" unicode="&#59368;" d="M131.782531 547.3384490000001a145.61698 145.61698 0 0 1 71.68-44.805225A332.90449 332.90449 0 0 1 177.632653 373.55102c0-184.675265 149.692082-334.367347 334.367347-334.367347 46.497959 0 90.780735 9.487673 131.009306 26.644898a145.449796 145.449796 0 0 1 38.703021-68.879673l3.866122-3.719837A416.433633 416.433633 0 0 0 512-44.408162999999945C281.161143-44.408162999999945 94.040816 142.71216300000003 94.040816 373.55102c0 62.004245 13.500082 120.873796 37.741715 173.787429z m579.500408-373.070367a104.489796 104.489796 0 1 0 147.748571-147.748572 104.489796 104.489796 0 0 0-147.748571 147.748572zM512 791.510204c230.838857 0 417.959184-187.120327 417.959184-417.959184 0-61.941551-13.479184-120.72751-37.637225-173.578449a145.596082 145.596082 0 0 1-72.59951 42.590041A332.90449 332.90449 0 0 1 846.367347 373.55102c0 184.675265-149.692082 334.367347-334.367347 334.367347-45.745633 0-89.338776-9.195102-129.044898-25.808979a145.094531 145.094531 0 0 1-44.721633 71.68A416.245551 416.245551 0 0 0 512 791.510204z m20.897959-250.77551a20.897959 20.897959 0 0 0 20.897959-20.897959v-104.489796h104.489796a20.897959 20.897959 0 0 0 20.897959-20.897959v-41.795919a20.897959 20.897959 0 0 0-20.897959-20.897959h-104.489796v-104.489796a20.897959 20.897959 0 0 0-20.897959-20.897959h-41.795918a20.897959 20.897959 0 0 0-20.897959 20.897959v104.489796h-104.489796a20.897959 20.897959 0 0 0-20.897959 20.897959v41.795919a20.897959 20.897959 0 0 0 20.897959 20.897959h104.489796v104.489796a20.897959 20.897959 0 0 0 20.897959 20.897959h41.795918zM167.936 717.61502a104.489796 104.489796 0 1 0 147.748571-147.748571 104.489796 104.489796 0 0 0-147.748571 147.748571z"  horiz-adv-x="1024" />

    
    <glyph glyph-name="copy" unicode="&#58969;" d="M796.444444 896H113.777778a113.777778 113.777778 0 0 1-113.777778-113.777778v-568.888889a113.777778 113.777778 0 0 1 113.777778-113.777777V782.222222h796.444444a113.777778 113.777778 0 0 1-113.777778 113.777778zM1016.604444 668.444444H348.728889A121.742222 121.742222 0 0 1 227.555556 546.133333v-551.822222A121.742222 121.742222 0 0 1 348.728889-128h667.875555A121.742222 121.742222 0 0 1 1137.777778-5.688889000000017v551.822222A121.742222 121.742222 0 0 1 1016.604444 668.444444zM1024-14.222221999999988H341.333333V554.666667h682.666667zM568.888889 213.33333300000004h56.888889v-56.888889a56.888889 56.888889 0 0 1 113.777778 0v56.888889h56.888888a56.888889 56.888889 0 0 1 0 113.777778h-56.888888V384a56.888889 56.888889 0 0 1-113.777778 0v-56.888889h-56.888889a56.888889 56.888889 0 0 1 0-113.777778z"  horiz-adv-x="1137" />

    
    <glyph glyph-name="move" unicode="&#59073;" d="M511.523 312.00199999999995c16.35 0 29.636-13.123 29.9-29.413l0.004-0.495v-236.853l79.56 79.563 0.506 0.494c11.714 11.184 30.277 11.02 41.788-0.49 11.561-11.562 11.675-30.236 0.343-41.941l-0.347-0.353L534.114-46.64999999999998a30.09 30.09 0 0 0-3.088-3.077l-0.023-0.022c-11.597-11.072-29.907-11.023-41.44 0.149l-0.348 0.342-131.75 131.749-0.493 0.505c-11.07 11.595-11.019 29.904 0.155 41.44l0.342 0.348 0.505 0.493c11.597 11.073 29.906 11.024 41.44-0.148l0.348-0.342 81.857-81.859V282.09400000000005l0.009 0.706c0.375 16.192 13.616 29.202 29.895 29.202z m320.453 223.256l0.505-0.493 131.749-131.75c11.511-11.51 11.674-30.073 0.49-41.787l-0.493-0.505-131.77-131.77c-11.68-11.68-30.615-11.681-42.293-0.003-11.511 11.51-11.674 30.073-0.49 41.788l0.493 0.505 82.337 82.338H620.371c-16.518 0-29.909 13.388-29.909 29.903 0 16.28 13.01 29.52 29.203 29.895l0.706 0.008 248.894 0.001-79.08 79.08c-11.512 11.512-11.675 30.075-0.491 41.789l0.493 0.505c11.513 11.513 30.076 11.679 41.789 0.496z m-633.718 2.777c11.713 11.182 30.276 11.017 41.789-0.496l0.493-0.505c11.184-11.715 11.021-30.277-0.49-41.789l-81.858-81.857h236.864l0.706-0.009c16.192-0.375 29.202-13.616 29.202-29.895 0-16.515-13.39-29.904-29.908-29.904l-234.551 0.001 79.562-79.561 0.493-0.505c11.184-11.715 11.021-30.277-0.49-41.789-11.678-11.678-30.613-11.676-42.293 0.004L73.01 356.496C62.949 361.312 56 371.586 56 383.48400000000004c0 8.925 3.91 16.937 10.113 22.417l131.64 131.64zM489.562 817.6c11.534 11.172 29.844 11.22 41.44 0.149l0.024-0.022a30.09 30.09 0 0 0 3.088-3.077l129.163-129.164 0.347-0.353c11.332-11.705 11.218-30.38-0.343-41.94-11.511-11.512-30.074-11.675-41.788-0.49l-0.505 0.493-79.562 79.563v-236.853l-0.003-0.495c-0.264-16.29-13.55-29.413-29.9-29.413-16.28 0-29.52 13.01-29.895 29.202l-0.008 0.706V725.072l-81.858-81.86-0.348-0.341c-11.534-11.172-29.843-11.22-41.44-0.148l-0.505 0.493-0.342 0.347c-11.174 11.537-11.226 29.846-0.155 41.441l0.493 0.505 131.75 131.75z"  horiz-adv-x="1024" />

    
    <glyph glyph-name="delete" unicode="&#58917;" d="M90.352941 384L90.352941 384C90.352941 334.19117600000004 466.876386 2.563586999999984 466.876386 2.563586999999984 491.663089-19.595838999999955 539.016734-37.64705900000001 572.343567-37.64705900000001L1144.385777-37.64705900000001C1210.791514-37.64705900000001 1264.941176 16.246835000000033 1264.941176 82.72832500000004L1264.941176 685.2716760000001C1264.941176 751.612378 1210.966679 805.647059 1144.385777 805.647059L572.343567 805.647059C538.797568 805.647059 491.976192 787.804431 467.275565 765.794434 467.275565 765.794434 90.352941 433.808824 90.352941 384L90.352941 384ZM798.117647 447.889176L649.112124 596.894699C631.269707 614.737132 602.796243 614.606434 585.153717 596.963925 567.38822 579.198416 567.542212 550.6862619999999 585.222957 533.0055199999999L734.22848 384 585.222957 234.99447999999995C567.38051 217.15204500000004 567.511221 188.678584 585.153717 171.03607599999998 602.919243 153.27056700000003 631.431379 153.42455900000004 649.112124 171.10530100000005L798.117647 320.110824 947.12317 171.10530100000005C964.965587 153.26286900000002 993.439051 153.39356799999996 1011.081577 171.03607599999998 1028.847074 188.80158400000005 1028.693082 217.31373799999994 1011.012337 234.99447999999995L862.006814 384 1011.012337 533.0055199999999C1028.854784 550.847955 1028.724073 579.321416 1011.081577 596.963925 993.316051 614.7294340000001 964.803915 614.5754400000001 947.12317 596.894699L798.117647 447.889176ZM0 384C0 444.999945 46.04151 495.752629 193.416222 637.01351 201.001352 644.283991 208.764085 651.677486 216.692344 659.184392 258.494554 698.764907 303.171765 739.886846 347.834669 780.20866 363.456512 794.312122 377.967616 807.3144589999999 391.002353 818.91821 398.855288 825.909033 404.49542 830.901599 407.166163 833.251938 448.494622 870.078498 516.73594 896 572.343567 896L1144.385777 896C1260.804698 896 1355.294118 801.575453 1355.294118 685.2716760000001L1355.294118 82.72832500000004C1355.294118-33.64395400000001 1260.702118-128 1144.385777-128L572.343567-128C516.813101-128 448.017378-101.77211299999999 407.157579-65.23995300000001 404.099885-62.54683899999998 398.465446-57.559406999999965 390.620582-50.57580900000005 377.599337-38.98415299999999 363.103262-25.995303000000035 347.497623-11.906370000000038 302.881009 28.373950000000036 258.250059 69.45442300000002 216.490918 108.996355 208.561333 116.50491599999998 200.797545 123.89995199999998 193.211573 131.17183999999997 46.014283 272.27448000000004 0 323.008518 0 384Z"  horiz-adv-x="1356" />

    
    <glyph glyph-name="toTop" unicode="&#58900;" d="M1024 896v-102.4H0V896h1024zM512 742.4l512-496.7936h-297.984L727.1936-128h-429.056v373.6064H0L512 742.4z"  horiz-adv-x="1024" />

    
    <glyph glyph-name="round-down" unicode="&#58968;" d="M512 832C264.58 832 64 631.4300000000001 64 384s200.58-448 448-448 448 200.58 448 448S759.42 832 512 832z m203.53-417.61L535 233.83000000000004c-0.13-0.14-0.17-0.33-0.3-0.45a32.21 32.21 0 0 0-45.4 0c-0.14 0.12-0.18 0.31-0.31 0.45l-180.6 180.56a32 32 0 0 0 45.25 45.25L512 301.33000000000004l158.27 158.31a32 32 0 0 0 45.26-45.25z"  horiz-adv-x="1024" />

    
    <glyph glyph-name="round-up" unicode="&#58973;" d="M512 832C264.58 832 64 631.4300000000001 64 384s200.58-448 448-448 448 200.58 448 448S759.42 832 512 832z m202-523.65a32 32 0 0 0-45.25 0L510.4 466.68 352.08 308.35a32 32 0 0 0-45.25 45.26L487.4 534.1800000000001c0.13 0.12 0.16 0.31 0.3 0.45a32.21 32.21 0 0 0 45.4 0c0.14-0.14 0.17-0.33 0.3-0.45L714 353.61a32 32 0 0 0 0-45.26z"  horiz-adv-x="1024" />

    
    <glyph glyph-name="view" unicode="&#58880;" d="M507.418 7.964c-303.906 0-495.422 215.584-495.422 272.772 0 57.186 191.516 309.548 495.422 309.548s508.58-235.68 508.58-309.548C1015.998 206.866 811.324 7.964 507.418 7.964zM493.75 429.66c-44.352 0-80.306-35.902-80.306-80.188 0-44.294 35.954-80.194 80.306-80.194 44.348 0 80.304 35.902 80.304 80.194C574.052 393.758 538.098 429.66 493.75 429.66zM734.876 469.804c29.32-38.928 49.212-78.41 49.212-130.836 0-128.644-104.602-232.928-233.636-232.928-129.03 0-233.63 104.284-233.63 232.928 0 79.488 15.73 128.964 76.694 170.998-192.558-28.644-313.89-183.282-313.89-225.584 0-46.318 159.466-215.118 424.322-215.118s438.268 155.286 438.268 215.118C942.216 323.264 896.93 404.786 734.876 469.804z"  horiz-adv-x="1024" />

    


  </font>
</defs>
</svg>
